<svg width="28" height="28" viewBox="0 0 28 28" fill="none" xmlns="http://www.w3.org/2000/svg">
<path d="M12.123 2.14568C13.3667 1.95014 14.6333 1.95014 15.877 2.14568C15.9743 2.16098 16.0676 2.19529 16.1517 2.24667C16.2357 2.29804 16.3088 2.36546 16.3668 2.44509C16.4248 2.52472 16.4666 2.61498 16.4897 2.71074C16.5128 2.8065 16.5168 2.90587 16.5015 3.00318C16.4862 3.10049 16.4519 3.19383 16.4005 3.27788C16.3491 3.36193 16.2817 3.43503 16.2021 3.49302C16.1224 3.55101 16.0322 3.59275 15.9364 3.61586C15.8407 3.63896 15.7413 3.64298 15.644 3.62768C14.5547 3.45638 13.4453 3.45638 12.356 3.62768C12.1595 3.65858 11.9587 3.61014 11.7979 3.49302C11.6371 3.37591 11.5294 3.1997 11.4985 3.00318C11.4676 2.80665 11.516 2.6059 11.6331 2.44509C11.7503 2.28428 11.9265 2.17658 12.123 2.14568ZM3.00298 11.4987C3.10029 11.5139 3.19365 11.5482 3.27773 11.5995C3.3618 11.6508 3.43494 11.7181 3.49298 11.7977C3.55102 11.8773 3.59281 11.9675 3.61598 12.0633C3.63914 12.159 3.64322 12.2584 3.62798 12.3557C3.45669 13.445 3.45669 14.5544 3.62798 15.6437C3.65888 15.8402 3.61044 16.041 3.49333 16.2018C3.37621 16.3626 3.20001 16.4703 3.00348 16.5012C2.80696 16.5321 2.60621 16.4836 2.44539 16.3665C2.28458 16.2494 2.17688 16.0732 2.14598 15.8767C1.95044 14.633 1.95044 13.3664 2.14598 12.1227C2.17698 11.9263 2.28465 11.7503 2.44534 11.6333C2.60604 11.5163 2.80661 11.4679 3.00298 11.4987ZM24.997 11.4987C25.1934 11.4679 25.3939 11.5163 25.5546 11.6333C25.7153 11.7503 25.823 11.9263 25.854 12.1227C26.0494 13.3664 26.0494 14.633 25.854 15.8767C25.8231 16.0732 25.7154 16.2494 25.5546 16.3665C25.3938 16.4836 25.193 16.5321 24.9965 16.5012C24.8 16.4703 24.6238 16.3626 24.5066 16.2018C24.3895 16.041 24.3411 15.8402 24.372 15.6437C24.5432 14.5544 24.5432 13.445 24.372 12.3557C24.3567 12.2584 24.3608 12.159 24.384 12.0633C24.4072 11.9675 24.4489 11.8773 24.507 11.7977C24.565 11.7181 24.6382 11.6508 24.7222 11.5995C24.8063 11.5482 24.8997 11.5139 24.997 11.4987ZM11.499 24.9967C11.5142 24.8994 11.5485 24.806 11.5998 24.7219C11.6511 24.6379 11.7185 24.5647 11.798 24.5067C11.8776 24.4486 11.9678 24.4068 12.0636 24.3837C12.1593 24.3605 12.2587 24.3564 12.356 24.3717C13.4453 24.5429 14.5547 24.5429 15.644 24.3717C15.7413 24.3564 15.8407 24.3604 15.9364 24.3835C16.0322 24.4066 16.1224 24.4483 16.2021 24.5063C16.2817 24.5643 16.3491 24.6374 16.4005 24.7215C16.4519 24.8055 16.4862 24.8989 16.5015 24.9962C16.5168 25.0935 16.5128 25.1929 16.4897 25.2886C16.4666 25.3844 16.4248 25.4746 16.3668 25.5543C16.3088 25.6339 16.2357 25.7013 16.1517 25.7527C16.0676 25.8041 15.9743 25.8384 15.877 25.8537C14.6333 26.0491 13.3667 26.0491 12.123 25.8537C11.9266 25.8227 11.7506 25.715 11.6336 25.5543C11.5166 25.3936 11.4682 25.1931 11.499 24.9967ZM21.055 4.28968C22.0725 5.03069 22.968 5.92616 23.709 6.94368C23.8203 7.10465 23.8643 7.30276 23.8315 7.49571C23.7988 7.68867 23.6919 7.86118 23.5337 7.97642C23.3755 8.09166 23.1786 8.14051 22.9849 8.11253C22.7912 8.08456 22.6161 7.98197 22.497 7.82668C21.8479 6.93525 21.0634 6.15078 20.172 5.50168C20.0167 5.38257 19.9141 5.20748 19.8861 5.01378C19.8582 4.82008 19.907 4.62311 20.0222 4.46493C20.1375 4.30675 20.31 4.19988 20.5029 4.16713C20.6959 4.13439 20.894 4.17837 21.055 4.28968ZM7.99298 4.45368C8.05098 4.53332 8.09273 4.6236 8.11583 4.71938C8.13892 4.81515 8.14293 4.91454 8.1276 5.01186C8.11228 5.10918 8.07793 5.20253 8.02652 5.28658C7.97511 5.37062 7.90765 5.44371 7.82798 5.50168C6.93659 6.15082 6.15212 6.93528 5.50298 7.82668C5.38388 7.98197 5.20878 8.08456 5.01508 8.11253C4.82138 8.14051 4.62442 8.09166 4.46623 7.97642C4.30805 7.86118 4.20118 7.68867 4.16844 7.49571C4.1357 7.30276 4.17967 7.10465 4.29098 6.94368C5.03203 5.92619 5.9275 5.03073 6.94498 4.28968C7.02456 4.23163 7.1148 4.18982 7.21053 4.16664C7.30627 4.14346 7.40563 4.13937 7.50295 4.1546C7.60027 4.16983 7.69364 4.20408 7.77772 4.2554C7.8618 4.30671 7.93494 4.37409 7.99298 4.45368ZM23.544 20.0057C23.6236 20.0636 23.6911 20.1367 23.7425 20.2208C23.7939 20.3048 23.8283 20.3982 23.8436 20.4955C23.8589 20.5928 23.8549 20.6922 23.8318 20.788C23.8087 20.8838 23.767 20.974 23.709 21.0537C22.9679 22.0712 22.0725 22.9666 21.055 23.7077C20.9756 23.7686 20.8848 23.813 20.788 23.8382C20.6912 23.8635 20.5903 23.8692 20.4913 23.8549C20.3923 23.8406 20.2972 23.8066 20.2115 23.755C20.1258 23.7033 20.0513 23.6351 19.9924 23.5542C19.9334 23.4733 19.8913 23.3815 19.8684 23.2841C19.8455 23.1867 19.8424 23.0857 19.8591 22.9871C19.8759 22.8884 19.9122 22.7942 19.9659 22.7098C20.0196 22.6254 20.0897 22.5526 20.172 22.4957C21.0633 21.8465 21.8478 21.062 22.497 20.1707C22.614 20.0101 22.79 19.9025 22.9863 19.8715C23.1827 19.8406 23.3832 19.8889 23.544 20.0057ZM4.45498 20.0057C4.53462 19.9477 4.62491 19.9059 4.72068 19.8828C4.81646 19.8597 4.91584 19.8557 5.01317 19.8711C5.11049 19.8864 5.20384 19.9207 5.28788 19.9721C5.37193 20.0235 5.44502 20.091 5.50298 20.1707C6.15225 21.062 6.93669 21.8464 7.82798 22.4957C7.91027 22.5526 7.98035 22.6254 8.03408 22.7098C8.08781 22.7942 8.12412 22.8884 8.14085 22.9871C8.15759 23.0857 8.15443 23.1867 8.13154 23.2841C8.10866 23.3815 8.06652 23.4733 8.00761 23.5542C7.9487 23.6351 7.8742 23.7033 7.78851 23.755C7.70282 23.8066 7.60766 23.8406 7.50864 23.8549C7.40962 23.8692 7.30874 23.8635 7.21194 23.8382C7.11514 23.813 7.02437 23.7686 6.94498 23.7077C5.92742 22.9667 5.03195 22.0712 4.29098 21.0537C4.23293 20.9741 4.19112 20.8839 4.16795 20.7881C4.14477 20.6924 4.14068 20.593 4.15591 20.4957C4.17114 20.3984 4.20539 20.305 4.2567 20.2209C4.30802 20.1369 4.37539 20.0637 4.45498 20.0057ZM9.84898 11.0627C9.99336 10.8872 10.1748 10.7458 10.3803 10.6488C10.5858 10.5518 10.8102 10.5014 11.0375 10.5014C11.2647 10.5014 11.4892 10.5518 11.6947 10.6488C11.9002 10.7458 12.0816 10.8872 12.226 11.0627L13.422 12.5167C13.4923 12.6021 13.5807 12.671 13.6809 12.7182C13.781 12.7655 13.8903 12.79 14.001 12.79C14.1117 12.79 14.221 12.7655 14.3211 12.7182C14.4212 12.671 14.5096 12.6021 14.58 12.5167L15.776 11.0627C15.9033 10.9033 16.061 10.7709 16.2399 10.673C16.4188 10.5751 16.6154 10.5138 16.8183 10.4926C17.0211 10.4713 17.2262 10.4907 17.4215 10.5494C17.6168 10.6081 17.7985 10.705 17.956 10.8346C18.1136 10.9641 18.2438 11.1237 18.3391 11.304C18.4344 11.4843 18.4929 11.6818 18.5112 11.8849C18.5295 12.0881 18.5073 12.2928 18.4458 12.4873C18.3843 12.6817 18.2848 12.862 18.153 13.0177L14.001 18.0677L9.84898 13.0177C9.62268 12.7422 9.49898 12.3967 9.49898 12.0402C9.49898 11.6837 9.62268 11.3382 9.84898 11.0627ZM13.385 10.1107C12.8731 9.48808 12.1349 9.09433 11.3327 9.01603C10.5305 8.93773 9.73008 9.18131 9.10748 9.69318C8.48489 10.205 8.09113 10.9433 8.01283 11.7455C7.93454 12.5476 8.17812 13.3481 8.68998 13.9707L13.422 19.7257C13.4923 19.8111 13.5807 19.88 13.6809 19.9272C13.781 19.9745 13.8903 19.999 14.001 19.999C14.1117 19.999 14.221 19.9745 14.3211 19.9272C14.4212 19.88 14.5096 19.8111 14.58 19.7257L19.312 13.9707C19.5654 13.6624 19.7557 13.3072 19.8719 12.9254C19.9881 12.5436 20.0279 12.1427 19.9891 11.7455C19.9504 11.3483 19.8337 10.9626 19.6459 10.6104C19.4581 10.2583 19.2028 9.94663 18.8945 9.69318C18.5862 9.43973 18.231 9.24948 17.8492 9.13329C17.4674 9.01711 17.0665 8.97726 16.6693 9.01603C15.8671 9.09433 15.1289 9.48808 14.617 10.1107L14 10.8597L13.384 10.1097L13.385 10.1107Z" fill="black"/>
</svg>
