<svg width="29" height="27" viewBox="0 0 29 27" fill="none" xmlns="http://www.w3.org/2000/svg">
<path d="M25.412 23.4628L20.2845 18.7433M20.2845 18.7433C21.1616 17.9361 21.8573 16.9777 22.332 15.9229C22.8067 14.8682 23.051 13.7377 23.051 12.596C23.051 11.4543 22.8067 10.3238 22.332 9.26908C21.8573 8.21432 21.1616 7.25594 20.2845 6.44866C19.4074 5.64138 18.3662 5.00101 17.2202 4.56411C16.0742 4.12721 14.846 3.90234 13.6056 3.90234C12.3652 3.90234 11.137 4.12721 9.99105 4.56411C8.84508 5.00101 7.80384 5.64138 6.92676 6.44866C5.15541 8.07903 4.16028 10.2903 4.16028 12.596C4.16028 14.9017 5.15541 17.113 6.92676 18.7433C8.6981 20.3737 11.1006 21.2897 13.6056 21.2897C16.1107 21.2897 18.5131 20.3737 20.2845 18.7433Z" stroke="black" stroke-linecap="round" stroke-linejoin="round"/>
</svg>
