<svg width="1204" height="244" viewBox="0 0 1204 244" fill="none" xmlns="http://www.w3.org/2000/svg">
<path d="M61.6773 233.8C51.544 233.8 41.944 231.867 32.8773 228C23.944 224.133 16.0773 218.8 9.27734 212L22.8773 196C28.2107 201.2 34.2773 205.4 41.0773 208.6C48.0107 211.8 55.0773 213.4 62.2773 213.4C71.0773 213.4 77.8107 211.467 82.4773 207.6C87.2773 203.733 89.6773 198.733 89.6773 192.6C89.6773 188.067 88.6773 184.467 86.6773 181.8C84.6773 179 81.8773 176.667 78.2773 174.8C74.8107 172.933 70.8107 171 66.2773 169L45.8773 160.2C41.0773 158.2 36.344 155.6 31.6773 152.4C27.144 149.067 23.344 144.933 20.2773 140C17.344 134.933 15.8773 128.8 15.8773 121.6C15.8773 113.867 17.944 106.933 22.0773 100.8C26.2107 94.6667 31.944 89.8667 39.2773 86.4C46.6107 82.8 54.944 81 64.2773 81C72.944 81 81.144 82.6667 88.8773 86C96.6107 89.3333 103.211 93.8667 108.677 99.6L96.8773 114.4C92.2107 110.267 87.2107 107.067 81.8773 104.8C76.6773 102.4 70.8107 101.2 64.2773 101.2C56.6773 101.2 50.6773 102.933 46.2773 106.4C41.8773 109.733 39.6773 114.267 39.6773 120C39.6773 124.267 40.8107 127.8 43.0773 130.6C45.344 133.267 48.2773 135.533 51.8773 137.4C55.6107 139.133 59.4107 140.8 63.2773 142.4L83.4773 151C89.344 153.4 94.544 156.333 99.0773 159.8C103.611 163.267 107.144 167.467 109.677 172.4C112.211 177.333 113.477 183.467 113.477 190.8C113.477 198.667 111.411 205.867 107.277 212.4C103.144 218.8 97.2107 224 89.4773 228C81.744 231.867 72.4773 233.8 61.6773 233.8ZM179.557 233.8C167.024 233.8 155.89 230.667 146.157 224.4C136.557 218.133 129.024 209.267 123.557 197.8C118.09 186.2 115.357 172.533 115.357 156.8C115.357 140.933 118.09 127.4 123.557 116.2C129.024 104.867 136.557 96.2 146.157 90.2C155.89 84.0667 167.024 81 179.557 81C192.224 81 203.357 84.0667 212.957 90.2C222.557 96.2 230.09 104.867 235.557 116.2C241.024 127.4 243.757 140.933 243.757 156.8C243.757 172.533 241.024 186.2 235.557 197.8C230.09 209.267 222.557 218.133 212.957 224.4C203.357 230.667 192.224 233.8 179.557 233.8ZM179.557 213.4C187.69 213.4 194.757 211.067 200.757 206.4C206.89 201.733 211.624 195.2 214.957 186.8C218.29 178.267 219.957 168.267 219.957 156.8C219.957 145.333 218.29 135.467 214.957 127.2C211.624 118.8 206.89 112.4 200.757 108C194.757 103.467 187.69 101.2 179.557 101.2C171.424 101.2 164.29 103.467 158.157 108C152.157 112.4 147.49 118.8 144.157 127.2C140.957 135.467 139.357 145.333 139.357 156.8C139.357 168.267 140.957 178.267 144.157 186.8C147.49 195.2 152.157 201.733 158.157 206.4C164.29 211.067 171.424 213.4 179.557 213.4ZM256.538 231V83.6H279.738V211.2H342.138V231H256.538ZM350.262 231V83.6H373.462V231H350.262ZM394.18 231V83.6H432.38C447.58 83.6 460.447 86.4 470.98 92C481.514 97.4667 489.514 105.6 494.98 116.4C500.58 127.2 503.38 140.667 503.38 156.8C503.38 172.8 500.58 186.333 494.98 197.4C489.514 208.467 481.58 216.867 471.18 222.6C460.78 228.2 448.247 231 433.58 231H394.18ZM417.38 212H430.78C441.314 212 450.18 209.933 457.38 205.8C464.714 201.667 470.18 195.533 473.78 187.4C477.514 179.133 479.38 168.933 479.38 156.8C479.38 144.533 477.514 134.4 473.78 126.4C470.18 118.4 464.714 112.467 457.38 108.6C450.18 104.6 441.314 102.6 430.78 102.6H417.38V212ZM543.346 231V83.6H566.546V143.8H629.546V83.6H652.746V231H629.546V164H566.546V231H543.346ZM729.788 233.8C717.255 233.8 706.122 230.667 696.388 224.4C686.788 218.133 679.255 209.267 673.788 197.8C668.322 186.2 665.588 172.533 665.588 156.8C665.588 140.933 668.322 127.4 673.788 116.2C679.255 104.867 686.788 96.2 696.388 90.2C706.122 84.0667 717.255 81 729.788 81C742.455 81 753.588 84.0667 763.188 90.2C772.788 96.2 780.322 104.867 785.788 116.2C791.255 127.4 793.988 140.933 793.988 156.8C793.988 172.533 791.255 186.2 785.788 197.8C780.322 209.267 772.788 218.133 763.188 224.4C753.588 230.667 742.455 233.8 729.788 233.8ZM729.788 213.4C737.922 213.4 744.988 211.067 750.988 206.4C757.122 201.733 761.855 195.2 765.188 186.8C768.522 178.267 770.188 168.267 770.188 156.8C770.188 145.333 768.522 135.467 765.188 127.2C761.855 118.8 757.122 112.4 750.988 108C744.988 103.467 737.922 101.2 729.788 101.2C721.655 101.2 714.522 103.467 708.388 108C702.388 112.4 697.722 118.8 694.388 127.2C691.188 135.467 689.588 145.333 689.588 156.8C689.588 168.267 691.188 178.267 694.388 186.8C697.722 195.2 702.388 201.733 708.388 206.4C714.522 211.067 721.655 213.4 729.788 213.4ZM806.77 231V83.6H833.57L860.37 158.2C862.103 163 863.77 167.933 865.37 173C866.97 177.933 868.57 182.867 870.17 187.8H871.17C872.903 182.867 874.503 177.933 875.97 173C877.57 167.933 879.17 163 880.77 158.2L907.17 83.6H934.17V231H912.57V158.2C912.57 153.8 912.703 148.933 912.97 143.6C913.37 138.267 913.77 132.867 914.17 127.4C914.703 121.933 915.236 117 915.77 112.6H914.77L902.97 146.6L877.37 216.8H862.97L837.17 146.6L825.37 112.6H824.57C825.103 117 825.57 121.933 825.97 127.4C826.503 132.867 826.903 138.267 827.17 143.6C827.57 148.933 827.77 153.8 827.77 158.2V231H806.77ZM954.985 231V83.6H981.785L1008.59 158.2C1010.32 163 1011.99 167.933 1013.59 173C1015.19 177.933 1016.79 182.867 1018.39 187.8H1019.39C1021.12 182.867 1022.72 177.933 1024.19 173C1025.79 167.933 1027.39 163 1028.99 158.2L1055.39 83.6H1082.39V231H1060.79V158.2C1060.79 153.8 1060.92 148.933 1061.19 143.6C1061.59 138.267 1061.99 132.867 1062.39 127.4C1062.92 121.933 1063.45 117 1063.99 112.6H1062.99L1051.19 146.6L1025.59 216.8H1011.19L985.385 146.6L973.585 112.6H972.785C973.318 117 973.785 121.933 974.185 127.4C974.718 132.867 975.118 138.267 975.385 143.6C975.785 148.933 975.985 153.8 975.985 158.2V231H954.985ZM1103.2 231V83.6H1190.2V103.2H1126.4V144.2H1180.4V163.8H1126.4V211.2H1192.4V231H1103.2Z" fill="white"/>
<g filter="url(#filter0_d_251_26)">
<path d="M759.544 23V59H755.704V23H759.544ZM775.684 57.14L775.564 59H759.424V57.14H775.684ZM772.864 40.1V41.9H759.424V40.1H772.864ZM775.624 23V24.86H759.424V23H775.624ZM779.044 50.42L775.744 59H766.624L768.664 57.14C770.664 57.14 772.264 56.86 773.464 56.3C774.704 55.7 775.704 54.9 776.464 53.9C777.224 52.86 777.884 51.7 778.444 50.42H779.044ZM772.864 41.78V45.2H772.204V44.42C772.204 43.74 772.004 43.16 771.604 42.68C771.204 42.16 770.584 41.9 769.744 41.9V41.78H772.864ZM772.864 36.8V40.22H769.744V40.1C770.584 40.1 771.204 39.86 771.604 39.38C772.004 38.86 772.204 38.26 772.204 37.58V36.8H772.864ZM775.624 24.68V28.82H774.964V27.92C774.964 27.08 774.684 26.36 774.124 25.76C773.604 25.16 772.884 24.86 771.964 24.86V24.68H775.624ZM775.624 22.04V23.6L768.784 23C770.024 23 771.344 22.9 772.744 22.7C774.144 22.46 775.104 22.24 775.624 22.04ZM755.824 55.16L756.604 59H751.384V58.4C751.384 58.4 751.524 58.4 751.804 58.4C752.084 58.4 752.224 58.4 752.224 58.4C753.224 58.4 754.044 58.08 754.684 57.44C755.324 56.8 755.664 56.04 755.704 55.16H755.824ZM755.824 26.78H755.704C755.664 25.86 755.324 25.1 754.684 24.5C754.044 23.9 753.224 23.6 752.224 23.6C752.224 23.6 752.084 23.6 751.804 23.6C751.524 23.6 751.384 23.6 751.384 23.6V23H756.604L755.824 26.78ZM785.217 22.1L818.457 53.42L819.057 59.84L785.817 28.34L785.217 22.1ZM785.337 55.28V59H780.837V58.4C780.837 58.4 780.997 58.4 781.317 58.4C781.677 58.4 781.857 58.4 781.857 58.4C782.777 58.4 783.557 58.1 784.197 57.5C784.837 56.9 785.157 56.16 785.157 55.28H785.337ZM787.857 55.28C787.857 56.16 788.177 56.9 788.817 57.5C789.497 58.1 790.277 58.4 791.157 58.4C791.157 58.4 791.317 58.4 791.637 58.4C791.997 58.4 792.177 58.4 792.177 58.4V59H787.677V55.28H787.857ZM785.217 22.1L787.797 25.46L787.857 59H785.157V29.6C785.157 27.56 785.057 25.8 784.857 24.32C784.697 22.84 784.617 22.1 784.617 22.1H785.217ZM819.057 23V52.16C819.057 53.44 819.097 54.68 819.177 55.88C819.257 57.04 819.337 58 819.417 58.76C819.537 59.48 819.597 59.84 819.597 59.84H819.057L816.417 56.66V23H819.057ZM818.877 26.72V23H823.377V23.6C823.377 23.6 823.197 23.6 822.837 23.6C822.517 23.6 822.357 23.6 822.357 23.6C821.477 23.6 820.697 23.9 820.017 24.5C819.377 25.1 819.057 25.84 819.057 26.72H818.877ZM816.417 26.72C816.377 25.84 816.037 25.1 815.397 24.5C814.757 23.9 813.977 23.6 813.057 23.6C813.057 23.6 812.877 23.6 812.517 23.6C812.197 23.6 812.037 23.6 812.037 23.6V23H816.537V26.72H816.417ZM842.715 23.18V59H838.815V23.18H842.715ZM857.235 22.94V24.74H824.295V22.94H857.235ZM857.235 24.62V28.76H856.575V27.8C856.575 26.96 856.295 26.26 855.735 25.7C855.215 25.1 854.495 24.78 853.575 24.74V24.62H857.235ZM857.235 21.98V23.54L850.515 22.94C851.315 22.94 852.155 22.9 853.035 22.82C853.955 22.7 854.795 22.56 855.555 22.4C856.315 22.24 856.875 22.1 857.235 21.98ZM838.935 55.16V59H834.555V58.4C834.595 58.4 834.715 58.4 834.915 58.4C835.155 58.4 835.275 58.4 835.275 58.4C836.235 58.4 837.055 58.08 837.735 57.44C838.415 56.8 838.775 56.04 838.815 55.16H838.935ZM842.535 55.16H842.715C842.755 56.04 843.115 56.8 843.795 57.44C844.475 58.08 845.295 58.4 846.255 58.4C846.255 58.4 846.355 58.4 846.555 58.4C846.795 58.4 846.915 58.4 846.915 58.4V59H842.535V55.16ZM827.955 24.62V24.74C827.035 24.78 826.295 25.1 825.735 25.7C825.215 26.26 824.955 26.96 824.955 27.8V28.76H824.295V24.62H827.955ZM824.295 21.98C824.655 22.1 825.195 22.24 825.915 22.4C826.675 22.56 827.515 22.7 828.435 22.82C829.355 22.9 830.215 22.94 831.015 22.94L824.295 23.54V21.98ZM867.443 23V59H863.603V23H867.443ZM883.583 57.14L883.463 59H867.323V57.14H883.583ZM880.763 40.1V41.9H867.323V40.1H880.763ZM883.523 23V24.86H867.323V23H883.523ZM886.943 50.42L883.643 59H874.523L876.563 57.14C878.563 57.14 880.163 56.86 881.363 56.3C882.603 55.7 883.603 54.9 884.363 53.9C885.123 52.86 885.783 51.7 886.343 50.42H886.943ZM880.763 41.78V45.2H880.103V44.42C880.103 43.74 879.903 43.16 879.503 42.68C879.103 42.16 878.483 41.9 877.643 41.9V41.78H880.763ZM880.763 36.8V40.22H877.643V40.1C878.483 40.1 879.103 39.86 879.503 39.38C879.903 38.86 880.103 38.26 880.103 37.58V36.8H880.763ZM883.523 24.68V28.82H882.863V27.92C882.863 27.08 882.583 26.36 882.023 25.76C881.503 25.16 880.783 24.86 879.863 24.86V24.68H883.523ZM883.523 22.04V23.6L876.683 23C877.923 23 879.243 22.9 880.643 22.7C882.043 22.46 883.003 22.24 883.523 22.04ZM863.723 55.16L864.503 59H859.283V58.4C859.283 58.4 859.423 58.4 859.703 58.4C859.983 58.4 860.123 58.4 860.123 58.4C861.123 58.4 861.943 58.08 862.583 57.44C863.223 56.8 863.563 56.04 863.603 55.16H863.723ZM863.723 26.78H863.603C863.563 25.86 863.223 25.1 862.583 24.5C861.943 23.9 861.123 23.6 860.123 23.6C860.123 23.6 859.983 23.6 859.703 23.6C859.423 23.6 859.283 23.6 859.283 23.6V23H864.503L863.723 26.78ZM896.671 23H904.411C906.291 23 907.971 23.22 909.451 23.66C910.971 24.1 912.251 24.74 913.291 25.58C914.371 26.42 915.191 27.44 915.751 28.64C916.311 29.84 916.591 31.2 916.591 32.72C916.591 34.4 916.191 35.96 915.391 37.4C914.591 38.84 913.471 40.02 912.031 40.94C910.631 41.86 909.031 42.42 907.231 42.62C907.911 42.9 908.691 43.52 909.571 44.48C910.491 45.44 911.271 46.38 911.911 47.3C911.911 47.3 912.171 47.66 912.691 48.38C913.211 49.06 913.871 49.92 914.671 50.96C915.511 51.96 916.331 52.92 917.131 53.84C917.971 54.76 918.731 55.56 919.411 56.24C920.131 56.92 920.891 57.46 921.691 57.86C922.531 58.22 923.491 58.4 924.571 58.4V59H922.711C920.511 59 918.691 58.72 917.251 58.16C915.851 57.6 914.711 56.92 913.831 56.12C912.951 55.28 912.191 54.48 911.551 53.72C911.391 53.52 911.011 53.02 910.411 52.22C909.851 51.38 909.231 50.48 908.551 49.52C907.871 48.56 907.251 47.7 906.691 46.94C906.131 46.14 905.791 45.66 905.671 45.5C904.871 44.46 903.951 43.54 902.911 42.74C901.871 41.9 900.771 41.48 899.611 41.48V40.88C899.611 40.88 899.931 40.9 900.571 40.94C901.211 40.94 902.031 40.92 903.031 40.88C904.151 40.84 905.271 40.76 906.391 40.64C907.511 40.48 908.551 40.04 909.511 39.32C910.511 38.6 911.291 37.4 911.851 35.72C912.011 35.28 912.131 34.76 912.211 34.16C912.291 33.56 912.311 32.94 912.271 32.3C912.231 31.18 912.011 30.18 911.611 29.3C911.251 28.42 910.711 27.66 909.991 27.02C909.311 26.38 908.491 25.88 907.531 25.52C906.571 25.16 905.491 24.96 904.291 24.92C902.411 24.84 900.771 24.82 899.371 24.86C897.971 24.9 897.271 24.9 897.271 24.86C897.271 24.82 897.211 24.66 897.091 24.38C897.011 24.06 896.911 23.76 896.791 23.48C896.711 23.16 896.671 23 896.671 23ZM897.391 23V59H893.551V23H897.391ZM893.731 55.16L894.451 59H889.351V58.4C889.351 58.4 889.491 58.4 889.771 58.4C890.051 58.4 890.191 58.4 890.191 58.4C891.151 58.4 891.951 58.08 892.591 57.44C893.231 56.8 893.571 56.04 893.611 55.16H893.731ZM893.731 26.78H893.611C893.571 25.86 893.231 25.1 892.591 24.5C891.951 23.9 891.151 23.6 890.191 23.6C890.191 23.6 890.051 23.6 889.771 23.6C889.491 23.6 889.351 23.6 889.351 23.6V23H894.451L893.731 26.78ZM897.211 55.16H897.391C897.431 56.04 897.771 56.8 898.411 57.44C899.051 58.08 899.851 58.4 900.811 58.4C900.811 58.4 900.931 58.4 901.171 58.4C901.451 58.4 901.591 58.4 901.591 58.4L901.651 59H896.491L897.211 55.16ZM953.788 23.18V59H949.888V23.18H953.788ZM968.308 22.94V24.74H935.368V22.94H968.308ZM968.308 24.62V28.76H967.648V27.8C967.648 26.96 967.368 26.26 966.808 25.7C966.288 25.1 965.568 24.78 964.648 24.74V24.62H968.308ZM968.308 21.98V23.54L961.588 22.94C962.388 22.94 963.228 22.9 964.108 22.82C965.028 22.7 965.868 22.56 966.628 22.4C967.388 22.24 967.948 22.1 968.308 21.98ZM950.008 55.16V59H945.628V58.4C945.668 58.4 945.788 58.4 945.988 58.4C946.228 58.4 946.348 58.4 946.348 58.4C947.308 58.4 948.128 58.08 948.808 57.44C949.488 56.8 949.848 56.04 949.888 55.16H950.008ZM953.608 55.16H953.788C953.828 56.04 954.188 56.8 954.868 57.44C955.548 58.08 956.368 58.4 957.328 58.4C957.328 58.4 957.428 58.4 957.628 58.4C957.868 58.4 957.988 58.4 957.988 58.4V59H953.608V55.16ZM939.028 24.62V24.74C938.108 24.78 937.368 25.1 936.808 25.7C936.288 26.26 936.028 26.96 936.028 27.8V28.76H935.368V24.62H939.028ZM935.368 21.98C935.728 22.1 936.268 22.24 936.988 22.4C937.748 22.56 938.588 22.7 939.508 22.82C940.428 22.9 941.288 22.94 942.088 22.94L935.368 23.54V21.98ZM1004.38 23V59H1000.54V23H1004.38ZM978.395 23V59H974.555V23H978.395ZM1001.14 40.34V42.14H977.735V40.34H1001.14ZM974.735 55.16V59H970.355V58.4C970.355 58.4 970.475 58.4 970.715 58.4C970.955 58.4 971.075 58.4 971.075 58.4C972.035 58.4 972.835 58.08 973.475 57.44C974.155 56.8 974.515 56.04 974.555 55.16H974.735ZM978.215 55.16H978.395C978.395 56.04 978.735 56.8 979.415 57.44C980.095 58.08 980.915 58.4 981.875 58.4C981.875 58.4 981.995 58.4 982.235 58.4C982.475 58.4 982.595 58.4 982.595 58.4V59H978.215V55.16ZM978.215 26.84V23H982.595V23.6C982.595 23.6 982.475 23.6 982.235 23.6C981.995 23.6 981.875 23.6 981.875 23.6C980.915 23.6 980.095 23.92 979.415 24.56C978.735 25.16 978.395 25.92 978.395 26.84H978.215ZM974.735 26.84H974.555C974.515 25.92 974.155 25.16 973.475 24.56C972.835 23.92 972.035 23.6 971.075 23.6C971.075 23.6 970.955 23.6 970.715 23.6C970.475 23.6 970.355 23.6 970.355 23.6V23H974.735V26.84ZM1000.72 55.16V59H996.335V58.4C996.335 58.4 996.455 58.4 996.695 58.4C996.935 58.4 997.055 58.4 997.055 58.4C998.015 58.4 998.815 58.08 999.455 57.44C1000.14 56.8 1000.5 56.04 1000.54 55.16H1000.72ZM1004.2 55.16H1004.38C1004.42 56.04 1004.76 56.8 1005.4 57.44C1006.08 58.08 1006.9 58.4 1007.86 58.4C1007.86 58.4 1007.98 58.4 1008.22 58.4C1008.46 58.4 1008.58 58.4 1008.58 58.4V59H1004.2V55.16ZM1004.2 26.84V23H1008.58V23.6C1008.58 23.6 1008.46 23.6 1008.22 23.6C1007.98 23.6 1007.86 23.6 1007.86 23.6C1006.9 23.6 1006.08 23.92 1005.4 24.56C1004.76 25.16 1004.42 25.92 1004.38 26.84H1004.2ZM1000.72 26.84H1000.54C1000.5 25.92 1000.14 25.16 999.455 24.56C998.815 23.92 998.015 23.6 997.055 23.6C997.055 23.6 996.935 23.6 996.695 23.6C996.455 23.6 996.335 23.6 996.335 23.6V23H1000.72V26.84ZM1021.18 23V59H1017.34V23H1021.18ZM1037.32 57.14L1037.2 59H1021.06V57.14H1037.32ZM1034.5 40.1V41.9H1021.06V40.1H1034.5ZM1037.26 23V24.86H1021.06V23H1037.26ZM1040.68 50.42L1037.38 59H1028.26L1030.3 57.14C1032.3 57.14 1033.9 56.86 1035.1 56.3C1036.34 55.7 1037.34 54.9 1038.1 53.9C1038.86 52.86 1039.52 51.7 1040.08 50.42H1040.68ZM1034.5 41.78V45.2H1033.84V44.42C1033.84 43.74 1033.64 43.16 1033.24 42.68C1032.84 42.16 1032.22 41.9 1031.38 41.9V41.78H1034.5ZM1034.5 36.8V40.22H1031.38V40.1C1032.22 40.1 1032.84 39.86 1033.24 39.38C1033.64 38.86 1033.84 38.26 1033.84 37.58V36.8H1034.5ZM1037.26 24.68V28.82H1036.6V27.92C1036.6 27.08 1036.32 26.36 1035.76 25.76C1035.24 25.16 1034.52 24.86 1033.6 24.86V24.68H1037.26ZM1037.26 22.04V23.6L1030.42 23C1031.66 23 1032.98 22.9 1034.38 22.7C1035.78 22.46 1036.74 22.24 1037.26 22.04ZM1017.46 55.16L1018.24 59H1013.02V58.4C1013.02 58.4 1013.16 58.4 1013.44 58.4C1013.72 58.4 1013.86 58.4 1013.86 58.4C1014.86 58.4 1015.68 58.08 1016.32 57.44C1016.96 56.8 1017.3 56.04 1017.34 55.16H1017.46ZM1017.46 26.78H1017.34C1017.3 25.86 1016.96 25.1 1016.32 24.5C1015.68 23.9 1014.86 23.6 1013.86 23.6C1013.86 23.6 1013.72 23.6 1013.44 23.6C1013.16 23.6 1013.02 23.6 1013.02 23.6V23H1018.24L1017.46 26.78ZM1072.89 59.84L1056.39 23.36H1061.13L1073.91 54.5L1072.89 59.84ZM1072.89 59.84L1072.47 55.7L1086.21 23.18H1089.99L1075.77 53.66C1075.77 53.66 1075.65 53.9 1075.41 54.38C1075.21 54.86 1074.95 55.46 1074.63 56.18C1074.35 56.86 1074.09 57.54 1073.85 58.22C1073.61 58.9 1073.47 59.44 1073.43 59.84H1072.89ZM1084.47 27.38C1084.91 26.18 1084.85 25.26 1084.29 24.62C1083.73 23.94 1083.09 23.6 1082.37 23.6H1081.95V23H1093.35V23.6C1093.35 23.6 1093.27 23.6 1093.11 23.6C1092.95 23.6 1092.87 23.6 1092.87 23.6C1092.03 23.6 1091.17 23.9 1090.29 24.5C1089.41 25.06 1088.65 26.02 1088.01 27.38H1084.47ZM1062.75 27.38H1058.19C1057.59 26.02 1056.85 25.06 1055.97 24.5C1055.09 23.9 1054.25 23.6 1053.45 23.6C1053.45 23.6 1053.37 23.6 1053.21 23.6C1053.05 23.6 1052.97 23.6 1052.97 23.6V23H1065.27V23.6H1064.79C1064.11 23.6 1063.49 23.94 1062.93 24.62C1062.41 25.26 1062.35 26.18 1062.75 27.38ZM1113.01 22.16C1115.81 22.16 1118.43 22.62 1120.87 23.54C1123.35 24.42 1125.51 25.7 1127.35 27.38C1129.23 29.06 1130.69 31.06 1131.73 33.38C1132.77 35.66 1133.29 38.2 1133.29 41C1133.29 43.8 1132.77 46.36 1131.73 48.68C1130.69 50.96 1129.23 52.94 1127.35 54.62C1125.51 56.3 1123.35 57.6 1120.87 58.52C1118.43 59.4 1115.81 59.84 1113.01 59.84C1110.21 59.84 1107.59 59.4 1105.15 58.52C1102.71 57.6 1100.55 56.3 1098.67 54.62C1096.83 52.94 1095.39 50.96 1094.35 48.68C1093.31 46.36 1092.79 43.8 1092.79 41C1092.79 38.2 1093.31 35.66 1094.35 33.38C1095.39 31.06 1096.83 29.06 1098.67 27.38C1100.55 25.7 1102.71 24.42 1105.15 23.54C1107.59 22.62 1110.21 22.16 1113.01 22.16ZM1113.01 58.04C1115.97 58.04 1118.65 57.32 1121.05 55.88C1123.45 54.44 1125.35 52.44 1126.75 49.88C1128.15 47.32 1128.85 44.36 1128.85 41C1128.85 37.6 1128.15 34.64 1126.75 32.12C1125.35 29.56 1123.45 27.56 1121.05 26.12C1118.65 24.68 1115.97 23.96 1113.01 23.96C1110.09 23.96 1107.43 24.68 1105.03 26.12C1102.63 27.56 1100.73 29.56 1099.33 32.12C1097.93 34.64 1097.23 37.6 1097.23 41C1097.23 44.36 1097.93 47.32 1099.33 49.88C1100.73 52.44 1102.63 54.44 1105.03 55.88C1107.43 57.32 1110.09 58.04 1113.01 58.04ZM1145.27 23V59H1141.49V23H1145.27ZM1141.67 55.16V59H1136.57V58.4C1136.57 58.4 1136.71 58.4 1136.99 58.4C1137.27 58.4 1137.41 58.4 1137.41 58.4C1138.53 58.4 1139.47 58.08 1140.23 57.44C1141.03 56.8 1141.45 56.04 1141.49 55.16H1141.67ZM1145.09 55.16H1145.27C1145.31 56.04 1145.71 56.8 1146.47 57.44C1147.27 58.08 1148.23 58.4 1149.35 58.4C1149.35 58.4 1149.47 58.4 1149.71 58.4C1149.99 58.4 1150.13 58.4 1150.13 58.4L1150.19 59H1145.09V55.16ZM1145.09 26.84V23H1150.19L1150.13 23.6C1150.13 23.6 1149.99 23.6 1149.71 23.6C1149.47 23.6 1149.35 23.6 1149.35 23.6C1148.23 23.6 1147.27 23.92 1146.47 24.56C1145.71 25.16 1145.31 25.92 1145.27 26.84H1145.09ZM1141.67 26.84H1141.49C1141.45 25.92 1141.03 25.16 1140.23 24.56C1139.47 23.92 1138.53 23.6 1137.41 23.6C1137.37 23.6 1137.21 23.6 1136.93 23.6C1136.69 23.6 1136.57 23.6 1136.57 23.6V23H1141.67V26.84ZM1174.67 23C1178.63 23 1182.05 23.72 1184.93 25.16C1187.81 26.6 1190.03 28.68 1191.59 31.4C1193.15 34.08 1193.93 37.28 1193.93 41C1193.93 44.72 1193.15 47.92 1191.59 50.6C1190.03 53.28 1187.81 55.36 1184.93 56.84C1182.05 58.28 1178.63 59 1174.67 59H1161.89L1161.77 57.2C1164.57 57.2 1166.91 57.2 1168.79 57.2C1170.71 57.2 1172.17 57.2 1173.17 57.2C1174.17 57.2 1174.67 57.2 1174.67 57.2C1179.31 57.2 1182.95 55.76 1185.59 52.88C1188.27 49.96 1189.61 46 1189.61 41C1189.61 36 1188.27 32.06 1185.59 29.18C1182.95 26.26 1179.31 24.8 1174.67 24.8C1174.67 24.8 1174.15 24.8 1173.11 24.8C1172.07 24.8 1170.55 24.8 1168.55 24.8C1166.55 24.8 1164.09 24.8 1161.17 24.8V23H1174.67ZM1162.73 23V59H1158.83V23H1162.73ZM1158.95 55.1V59H1154.63V58.4C1154.63 58.4 1154.75 58.4 1154.99 58.4C1155.27 58.4 1155.41 58.4 1155.41 58.4C1156.37 58.4 1157.17 58.08 1157.81 57.44C1158.45 56.76 1158.79 55.98 1158.83 55.1H1158.95ZM1158.95 26.9H1158.83C1158.79 25.94 1158.43 25.16 1157.75 24.56C1157.11 23.92 1156.31 23.6 1155.35 23.6C1155.35 23.6 1155.23 23.6 1154.99 23.6C1154.75 23.6 1154.63 23.6 1154.63 23.6V23H1158.95V26.9Z" fill="white"/>
</g>
<defs>
<filter id="filter0_d_251_26" x="743.384" y="13.98" width="458.547" height="53.8599" filterUnits="userSpaceOnUse" color-interpolation-filters="sRGB">
<feFlood flood-opacity="0" result="BackgroundImageFix"/>
<feColorMatrix in="SourceAlpha" type="matrix" values="0 0 0 0 0 0 0 0 0 0 0 0 0 0 0 0 0 0 127 0" result="hardAlpha"/>
<feOffset/>
<feGaussianBlur stdDeviation="4"/>
<feComposite in2="hardAlpha" operator="out"/>
<feColorMatrix type="matrix" values="0 0 0 0 0 0 0 0 0 0 0 0 0 0 0 0 0 0 0.5 0"/>
<feBlend mode="normal" in2="BackgroundImageFix" result="effect1_dropShadow_251_26"/>
<feBlend mode="normal" in="SourceGraphic" in2="effect1_dropShadow_251_26" result="shape"/>
</filter>
</defs>
</svg>
