<svg width="43" height="13" viewBox="0 0 43 13" fill="none" xmlns="http://www.w3.org/2000/svg">
<path d="M5.888 12.5254C5.17333 12.5254 4.512 12.3867 3.904 12.1094C3.30667 11.832 2.784 11.4267 2.336 10.8934C1.89867 10.36 1.55733 9.72538 1.312 8.98938C1.07733 8.24272 0.96 7.40538 0.96 6.47738C0.96 5.53872 1.08267 4.70138 1.328 3.96538C1.57333 3.21872 1.92 2.58405 2.368 2.06138C2.816 1.53872 3.344 1.13872 3.952 0.861382C4.57067 0.584049 5.248 0.445382 5.984 0.445382C6.67733 0.445382 7.28 0.589382 7.792 0.877382C8.31467 1.16538 8.736 1.49072 9.056 1.85338L8.512 2.47738C8.20267 2.12538 7.83467 1.84272 7.408 1.62938C6.992 1.41605 6.52267 1.30938 6 1.30938C5.168 1.30938 4.448 1.51738 3.84 1.93338C3.24267 2.34938 2.77867 2.94672 2.448 3.72538C2.11733 4.49338 1.952 5.40538 1.952 6.46138C1.952 7.51738 2.112 8.43472 2.432 9.21338C2.76267 9.99205 3.22667 10.5947 3.824 11.0214C4.42133 11.448 5.12533 11.6614 5.936 11.6614C6.52267 11.6614 7.04533 11.544 7.504 11.3094C7.97333 11.064 8.416 10.712 8.832 10.2534L9.376 10.8614C8.928 11.384 8.42667 11.7947 7.872 12.0934C7.31733 12.3814 6.656 12.5254 5.888 12.5254ZM10.6073 12.3174V0.653382H11.5673V11.4854H16.8793V12.3174H10.6073ZM21.568 12.5254C20.6187 12.5254 19.7813 12.2747 19.056 11.7734C18.3307 11.272 17.76 10.568 17.344 9.66138C16.928 8.75472 16.72 7.68272 16.72 6.44538C16.72 5.20805 16.928 4.14138 17.344 3.24538C17.76 2.34938 18.3307 1.66138 19.056 1.18138C19.7813 0.690715 20.6187 0.445382 21.568 0.445382C22.5067 0.445382 23.3387 0.690715 24.064 1.18138C24.8 1.67205 25.3707 2.36538 25.776 3.26138C26.192 4.14672 26.4 5.20805 26.4 6.44538C26.4 7.68272 26.192 8.75472 25.776 9.66138C25.3707 10.568 24.8 11.272 24.064 11.7734C23.3387 12.2747 22.5067 12.5254 21.568 12.5254ZM21.568 11.6614C22.336 11.6614 23.008 11.448 23.584 11.0214C24.16 10.584 24.608 9.97605 24.928 9.19738C25.248 8.41872 25.408 7.50138 25.408 6.44538C25.408 5.38938 25.248 4.47738 24.928 3.70938C24.608 2.94138 24.16 2.34938 23.584 1.93338C23.008 1.51738 22.336 1.30938 21.568 1.30938C20.8 1.30938 20.1227 1.51738 19.536 1.93338C18.96 2.34938 18.512 2.94138 18.192 3.70938C17.872 4.47738 17.712 5.38938 17.712 6.44538C17.712 7.50138 17.872 8.41872 18.192 9.19738C18.512 9.97605 18.96 10.584 19.536 11.0214C20.1227 11.448 20.8 11.6614 21.568 11.6614ZM31.0334 12.5254C30.1907 12.5254 29.4334 12.3654 28.7614 12.0454C28.0894 11.7147 27.524 11.2934 27.0654 10.7814L27.6574 10.1094C28.084 10.5787 28.5907 10.9574 29.1774 11.2454C29.764 11.5227 30.3827 11.6614 31.0334 11.6614C31.8974 11.6614 32.58 11.4534 33.0814 11.0374C33.5827 10.6214 33.8334 10.0827 33.8334 9.42138C33.8334 8.95205 33.7374 8.57872 33.5454 8.30138C33.364 8.01338 33.1187 7.77872 32.8094 7.59738C32.5 7.40538 32.1534 7.22938 31.7694 7.06938L30.0254 6.28538C29.684 6.13605 29.3267 5.94405 28.9534 5.70938C28.5907 5.47472 28.2814 5.17072 28.0254 4.79738C27.78 4.41338 27.6574 3.93872 27.6574 3.37338C27.6574 2.78672 27.8067 2.28005 28.1054 1.85338C28.404 1.41605 28.8147 1.07472 29.3374 0.829382C29.86 0.573382 30.452 0.445382 31.1134 0.445382C31.8174 0.445382 32.4467 0.584049 33.0014 0.861382C33.5667 1.12805 34.0307 1.45872 34.3934 1.85338L33.8654 2.47738C33.524 2.12538 33.124 1.84272 32.6654 1.62938C32.2067 1.41605 31.6894 1.30938 31.1134 1.30938C30.3667 1.30938 29.764 1.49072 29.3054 1.85338C28.8574 2.20538 28.6334 2.68538 28.6334 3.29338C28.6334 3.73072 28.74 4.08805 28.9534 4.36538C29.1667 4.64272 29.428 4.86672 29.7374 5.03738C30.0467 5.20805 30.3454 5.35738 30.6334 5.48538L32.3614 6.25338C32.8094 6.44538 33.2147 6.66938 33.5774 6.92538C33.9507 7.18138 34.2494 7.50138 34.4734 7.88538C34.6974 8.26938 34.8094 8.76005 34.8094 9.35738C34.8094 9.95472 34.6547 10.4934 34.3454 10.9734C34.036 11.4534 33.5987 11.832 33.0334 12.1094C32.468 12.3867 31.8014 12.5254 31.0334 12.5254ZM36.1066 12.3174V0.653382H42.5546V1.48538H37.0666V5.70938H41.6746V6.54138H37.0666V11.4854H42.7306V12.3174H36.1066Z" fill="#666666"/>
</svg>
