<svg width="12" height="16" viewBox="0 0 12 16" fill="none" xmlns="http://www.w3.org/2000/svg">
<path d="M6.06 15.28C4 15.28 2.22 14.44 0.94 13.1L2.04 11.82C3.1 12.94 4.58 13.64 6.1 13.64C8.02 13.64 9.16 12.68 9.16 11.26C9.16 9.74 8.1 9.26 6.72 8.66L4.62 7.74C3.24 7.16 1.64 6.12 1.64 3.98C1.64 1.72 3.58 0.079999 6.26 0.079999C8 0.079999 9.54 0.819999 10.56 1.9L9.58 3.08C8.68 2.24 7.6 1.7 6.26 1.7C4.6 1.7 3.52 2.54 3.52 3.84C3.52 5.28 4.8 5.8 5.94 6.28L8.02 7.18C9.74 7.92 11.04 8.94 11.04 11.12C11.04 13.44 9.14 15.28 6.06 15.28Z" fill="black"/>
</svg>
