<svg width="27" height="20" viewBox="0 0 27 20" fill="none" xmlns="http://www.w3.org/2000/svg">
<path d="M6 11.625C6.99609 11.625 7.875 12.5039 7.875 13.5V17.25C7.875 18.3047 6.99609 19.125 6 19.125H2.25C1.19531 19.125 0.375 18.3047 0.375 17.25V13.5C0.375 12.5039 1.19531 11.625 2.25 11.625H6ZM15.375 11.625C16.3711 11.625 17.25 12.5039 17.25 13.5V17.25C17.25 18.3047 16.3711 19.125 15.375 19.125H11.625C10.5703 19.125 9.75 18.3047 9.75 17.25V13.5C9.75 12.5039 10.5703 11.625 11.625 11.625H15.375ZM24.75 11.625C25.7461 11.625 26.625 12.5039 26.625 13.5V17.25C26.625 18.3047 25.7461 19.125 24.75 19.125H21C19.9453 19.125 19.125 18.3047 19.125 17.25V13.5C19.125 12.5039 19.9453 11.625 21 11.625H24.75ZM6 0.375C6.99609 0.375 7.875 1.25391 7.875 2.25V6C7.875 7.05469 6.99609 7.875 6 7.875H2.25C1.19531 7.875 0.375 7.05469 0.375 6V2.25C0.375 1.25391 1.19531 0.375 2.25 0.375H6ZM15.375 0.375C16.3711 0.375 17.25 1.25391 17.25 2.25V6C17.25 7.05469 16.3711 7.875 15.375 7.875H11.625C10.5703 7.875 9.75 7.05469 9.75 6V2.25C9.75 1.25391 10.5703 0.375 11.625 0.375H15.375ZM24.75 0.375C25.7461 0.375 26.625 1.25391 26.625 2.25V6C26.625 7.05469 25.7461 7.875 24.75 7.875H21C19.9453 7.875 19.125 7.05469 19.125 6V2.25C19.125 1.25391 19.9453 0.375 21 0.375H24.75Z" fill="black"/>
</svg>
