<svg width="18" height="17" viewBox="0 0 18 17" fill="none" xmlns="http://www.w3.org/2000/svg">
<path d="M1 5.5H17L16.165 14.681C16.1198 15.1779 15.8906 15.64 15.5222 15.9766C15.1538 16.3131 14.673 16.4998 14.174 16.5H3.826C3.32704 16.4998 2.84617 16.3131 2.4778 15.9766C2.10942 15.64 1.88016 15.1779 1.835 14.681L1 5.5Z" stroke="black" stroke-linejoin="round"/>
<path d="M5 7.5V4.5C5 3.43913 5.42143 2.42172 6.17157 1.67157C6.92172 0.921427 7.93913 0.5 9 0.5C10.0609 0.5 11.0783 0.921427 11.8284 1.67157C12.5786 2.42172 13 3.43913 13 4.5V7.5" stroke="black" stroke-linecap="round"/>
</svg>
