<svg width="396" height="48" viewBox="0 0 396 48" fill="none" xmlns="http://www.w3.org/2000/svg">
<path d="M0.595313 35.46L7.97531 33.96C8.45531 38.22 11.6953 41.16 17.4553 41.16C23.0353 41.16 26.0953 38.64 26.0953 34.5C26.0953 31.2 23.9953 29.22 19.3753 27.36L12.2353 24.48C5.09531 21.6 2.09531 17.64 2.09531 12.12C2.09531 4.62 8.15531 -2.86102e-06 17.3353 -2.86102e-06C24.4153 -2.86102e-06 30.7153 3.48 32.5153 8.1L26.4553 11.64C24.5953 8.46 21.1153 6.36 17.0353 6.36C12.9553 6.36 10.0153 8.4 10.0153 11.58C10.0153 14.28 11.3953 15.9 15.9553 17.82L22.6153 20.64C30.5353 23.94 34.1953 27.6 34.1953 34.02C34.1953 42.84 28.0153 48 17.6953 48C7.73531 48 1.31531 42.96 0.595313 35.46ZM75.6942 24C75.6942 40.32 69.3942 48 56.4342 48C43.2342 48 37.1742 40.62 37.1742 24C37.1742 7.68 43.4742 -2.86102e-06 56.4342 -2.86102e-06C69.6342 -2.86102e-06 75.6942 7.38 75.6942 24ZM45.1542 24C45.1542 36 48.0342 41.04 56.4342 41.04C64.8342 41.04 67.7142 36 67.7142 24C67.7142 11.88 64.8342 6.96 56.4342 6.96C48.0342 6.96 45.1542 11.88 45.1542 24ZM81.0773 47.4V1.2H89.0573V40.44H109.637V47.4H81.0773ZM121.162 1.2V47.4H112.882V1.2H121.162ZM127.753 47.4V1.2H142.393C156.073 1.2 161.593 8.28 161.593 24.3C161.593 40.38 155.593 47.4 142.393 47.4H127.753ZM135.433 40.38H143.173C150.973 40.38 153.613 35.7 153.613 24.3C153.613 12.84 150.973 8.16 143.173 8.16H135.433V40.38ZM206.613 1.2H214.293V47.4H206.613V26.64H186.093V47.4H178.413V1.2H186.093V19.68H206.613V1.2ZM258.202 24C258.202 40.32 251.902 48 238.942 48C225.742 48 219.682 40.62 219.682 24C219.682 7.68 225.982 -2.86102e-06 238.942 -2.86102e-06C252.142 -2.86102e-06 258.202 7.38 258.202 24ZM227.662 24C227.662 36 230.542 41.04 238.942 41.04C247.342 41.04 250.222 36 250.222 24C250.222 11.88 247.342 6.96 238.942 6.96C230.542 6.96 227.662 11.88 227.662 24ZM263.585 47.4V1.2H275.945L285.785 41.04L295.625 1.2H307.985V47.4H300.905V9.06L291.305 47.4H280.265L270.665 9.06V47.4H263.585ZM314.609 47.4V1.2H326.969L336.809 41.04L346.649 1.2H359.009V47.4H351.929V9.06L342.329 47.4H331.289L321.689 9.06V47.4H314.609ZM373.312 40.44H395.992V47.4H365.632V1.2H394.792V8.16H373.312V20.7H393.892V27.42H373.312V40.44Z" fill="black"/>
</svg>
