<svg width="15" height="20" viewBox="0 0 15 20" fill="none" xmlns="http://www.w3.org/2000/svg">
<path d="M12 0.5H6C5.20435 0.5 4.44129 0.816071 3.87868 1.37868C3.31607 1.94129 3 2.70435 3 3.5V7.5H4V3.5C4 2.96957 4.21071 2.46086 4.58579 2.08579C4.96086 1.71071 5.46957 1.5 6 1.5H12C12.5304 1.5 13.0391 1.71071 13.4142 2.08579C13.7893 2.46086 14 2.96957 14 3.5V16.5C14 17.0304 13.7893 17.5391 13.4142 17.9142C13.0391 18.2893 12.5304 18.5 12 18.5H6C5.46957 18.5 4.96086 18.2893 4.58579 17.9142C4.21071 17.5391 4 17.0304 4 16.5V12.5H3V16.5C3 17.2956 3.31607 18.0587 3.87868 18.6213C4.44129 19.1839 5.20435 19.5 6 19.5H12C12.7956 19.5 13.5587 19.1839 14.1213 18.6213C14.6839 18.0587 15 17.2956 15 16.5V3.5C15 2.70435 14.6839 1.94129 14.1213 1.37868C13.5587 0.816071 12.7956 0.5 12 0.5ZM0 9.5H10.25L7 6.25L7.66 5.5L12.16 10L7.66 14.5L7 13.75L10.25 10.5H0V9.5Z" fill="black"/>
</svg>
