<svg width="45" height="44" viewBox="0 0 45 44" fill="none" xmlns="http://www.w3.org/2000/svg">
<path d="M42.9613 18.8368L6.11397 0.568177C5.56428 0.293213 4.95381 0.162194 4.3397 0.187378C3.72559 0.212562 3.12791 0.393126 2.60258 0.712176C2.08054 1.02446 1.64827 1.46662 1.34788 1.9956C1.04748 2.52457 0.88919 3.12232 0.888428 3.73064V40.2789C0.888428 41.5057 1.53366 42.6494 2.60258 43.2946C3.12861 43.6132 3.72669 43.7934 4.34114 43.8186C4.95558 43.8438 5.56641 43.7131 6.11673 43.4386L42.9641 25.1645C44.177 24.5608 44.9469 23.3423 44.9469 21.9993C44.9469 20.6562 44.1743 19.4405 42.9613 18.8368Z" fill="white"/>
</svg>
